<?xml version='1.0' encoding='UTF-8'?>
<!DOCTYPE svg>
<!-- Creator: CorelDRAW X6 -->
<svg xmlns="http://www.w3.org/2000/svg" fill-rule="evenodd" text-rendering="geometricPrecision" xmlns:xml="http://www.w3.org/XML/1998/namespace" height="1.08105in" image-rendering="optimizeQuality" width="2.51033in" xml:space="preserve" version="1.1"  shape-rendering="geometricPrecision" viewBox="0 0 224012 96468" clip-rule="evenodd">
    <desc >
        <referenceFile >MKR1000-v2_pcb.svg</referenceFile>
    </desc>
    <g id="MKR1000" gorn="0.1" >
        <metadata id="CorelCorpID_0Corel-Layer" />
        <g id="copper1" gorn="0.1.1" >
            <g id="copper0" gorn="0.1.1.0" >
                <rect y="78293" x="75450" fill="none" height="4918" width="4916"  stroke-width="1405.29" stroke="#F7BD13"/>
                <circle id="connector0pin" fill="none" r="2459" cy="80751" cx="77908" gorn="0.1.1.0.1"  stroke-width="1405.29" stroke="#F7BD13"/>
                <circle id="connector1pin" fill="none" r="2459" cy="80751" cx="86831" gorn="0.1.1.0.2"  stroke-width="1405.29" stroke="#F7BD13"/>
                <circle id="connector2pin" fill="none" r="2459" cy="80751" cx="95755" gorn="0.1.1.0.3"  stroke-width="1405.29" stroke="#F7BD13"/>
                <circle id="connector3pin" fill="none" r="2459" cy="80751" cx="104679" gorn="0.1.1.0.4"  stroke-width="1405.29" stroke="#F7BD13"/>
                <circle id="connector4pin" fill="none" r="2459" cy="80751" cx="113601" gorn="0.1.1.0.5"  stroke-width="1405.29" stroke="#F7BD13"/>
                <circle id="connector5pin" fill="none" r="2459" cy="80751" cx="122526" gorn="0.1.1.0.6"  stroke-width="1405.29" stroke="#F7BD13"/>
                <circle id="connector6pin" fill="none" r="2459" cy="80751" cx="131449" gorn="0.1.1.0.7"  stroke-width="1405.29" stroke="#F7BD13"/>
                <circle id="connector7pin" fill="none" r="2459" cy="80751" cx="140373" gorn="0.1.1.0.8"  stroke-width="1405.29" stroke="#F7BD13"/>
                <circle id="connector8pin" fill="none" r="2459" cy="80751" cx="149296" gorn="0.1.1.0.9"  stroke-width="1405.29" stroke="#F7BD13"/>
                <circle id="connector9pin" fill="none" r="2459" cy="80751" cx="158220" gorn="0.1.1.0.10"  stroke-width="1405.29" stroke="#F7BD13"/>
                <circle id="connector10pin" fill="none" r="2459" cy="80751" cx="167144" gorn="0.1.1.0.11"  stroke-width="1405.29" stroke="#F7BD13"/>
                <circle id="connector11pin" fill="none" r="2459" cy="80751" cx="176067" gorn="0.1.1.0.12"  stroke-width="1405.29" stroke="#F7BD13"/>
                <circle id="connector12pin" fill="none" r="2459" cy="80751" cx="184990" gorn="0.1.1.0.13"  stroke-width="1405.29" stroke="#F7BD13"/>
                <circle id="connector13pin" fill="none" r="2459" cy="80751" cx="193914" gorn="0.1.1.0.14"  stroke-width="1405.29" stroke="#F7BD13"/>
                <rect y="6904" x="191456" fill="none" height="4918" width="4916"  stroke-width="1405.29" stroke="#F7BD13"/>
                <circle id="connector14pin" fill="none" r="2459" cy="9362" cx="193914" gorn="0.1.1.0.16"  stroke-width="1405.29" stroke="#F7BD13"/>
                <circle id="connector15pin" fill="none" r="2459" cy="9362" cx="184990" gorn="0.1.1.0.17"  stroke-width="1405.29" stroke="#F7BD13"/>
                <circle id="connector16pin" fill="none" r="2459" cy="9362" cx="176067" gorn="0.1.1.0.18"  stroke-width="1405.29" stroke="#F7BD13"/>
                <circle id="connector17pin" fill="none" r="2459" cy="9362" cx="167144" gorn="0.1.1.0.19"  stroke-width="1405.29" stroke="#F7BD13"/>
                <circle id="connector18pin" fill="none" r="2459" cy="9362" cx="158220" gorn="0.1.1.0.20"  stroke-width="1405.29" stroke="#F7BD13"/>
                <circle id="connector19pin" fill="none" r="2459" cy="9362" cx="149296" gorn="0.1.1.0.21"  stroke-width="1405.29" stroke="#F7BD13"/>
                <circle id="connector20pin" fill="none" r="2459" cy="9362" cx="140373" gorn="0.1.1.0.22"  stroke-width="1405.29" stroke="#F7BD13"/>
                <circle id="connector21pin" fill="none" r="2459" cy="9362" cx="131449" gorn="0.1.1.0.23"  stroke-width="1405.29" stroke="#F7BD13"/>
                <circle id="connector22pin" fill="none" r="2459" cy="9362" cx="122526" gorn="0.1.1.0.24"  stroke-width="1405.29" stroke="#F7BD13"/>
                <circle id="connector23pin" fill="none" r="2459" cy="9363" cx="113601" gorn="0.1.1.0.25"  stroke-width="1405.29" stroke="#F7BD13"/>
                <circle id="connector24pin" fill="none" r="2459" cy="9362" cx="104679" gorn="0.1.1.0.26"  stroke-width="1405.29" stroke="#F7BD13"/>
                <circle id="connector25pin" fill="none" r="2459" cy="9362" cx="95755" gorn="0.1.1.0.27"  stroke-width="1405.29" stroke="#F7BD13"/>
                <circle id="connector26pin" fill="none" r="2459" cy="9362" cx="86831" gorn="0.1.1.0.28"  stroke-width="1405.29" stroke="#F7BD13"/>
                <circle id="connector27pin" fill="none" r="2459" cy="9362" cx="77908" gorn="0.1.1.0.29"  stroke-width="1405.29" stroke="#F7BD13"/>
            </g>
            <path id="SMD_x0020_Pad" d="M196373 9362c0,-1358 -1101,-2459 -2459,-2459 -1358,0 -2459,1101 -2459,2459 0,1358 1101,2459 2459,2459 1359,0 2459,-1101 2459,-2459zm-2459 -2459l0 -1831m2459 -2317l0 2317 -4919 0 0 -2317 4919 0zm-4919 1542l4919 0m-4919 -765l4919 0" fill="none" gorn="0.1.1.1"  stroke-width="1405.29" stroke="#F7BD13"/>
            <path id="SMD_x0020_Pad_0" d="M187449 9362c0,-1358 -1101,-2459 -2459,-2459 -1358,0 -2459,1101 -2459,2459 0,1358 1101,2459 2459,2459 1359,0 2459,-1101 2459,-2459zm-2459 -2459l0 -1831m2459 -2317l0 2317 -4919 0 0 -2317 4919 0zm-4919 1542l4919 0m-4919 -765l4919 0" fill="none" gorn="0.1.1.2"  stroke-width="1405.29" stroke="#F7BD13"/>
            <path id="SMD_x0020_Pad_1" d="M178526 9362c0,-1358 -1101,-2459 -2459,-2459 -1358,0 -2459,1101 -2459,2459 0,1358 1101,2459 2459,2459 1359,0 2459,-1101 2459,-2459zm-2459 -2459l0 -1831m2459 -2317l0 2317 -4919 0 0 -2317 4919 0zm-4919 1542l4919 0m-4919 -765l4919 0" fill="none" gorn="0.1.1.3"  stroke-width="1405.29" stroke="#F7BD13"/>
            <path id="SMD_x0020_Pad_2" d="M169602 9362c0,-1358 -1101,-2459 -2459,-2459 -1358,0 -2459,1101 -2459,2459 0,1358 1101,2459 2459,2459 1359,0 2459,-1101 2459,-2459zm-2459 -2459l0 -1831m2459 -2317l0 2317 -4919 0 0 -2317 4919 0zm-4919 1542l4919 0m-4919 -765l4919 0" fill="none" gorn="0.1.1.4"  stroke-width="1405.29" stroke="#F7BD13"/>
            <path id="SMD_x0020_Pad_3" d="M160678 9362c0,-1358 -1101,-2459 -2459,-2459 -1358,0 -2459,1101 -2459,2459 0,1358 1101,2459 2459,2459 1359,0 2459,-1101 2459,-2459zm-2459 -2459l0 -1831m2459 -2317l0 2317 -4919 0 0 -2317 4919 0zm-4919 1542l4919 0m-4919 -765l4919 0" fill="none" gorn="0.1.1.5"  stroke-width="1405.29" stroke="#F7BD13"/>
            <path id="SMD_x0020_Pad_4" d="M151755 9362c0,-1358 -1101,-2459 -2459,-2459 -1358,0 -2459,1101 -2459,2459 0,1358 1101,2459 2459,2459 1359,0 2459,-1101 2459,-2459zm-2459 -2459l0 -1831m2459 -2317l0 2317 -4919 0 0 -2317 4919 0zm-4919 1542l4919 0m-4919 -765l4919 0" fill="none" gorn="0.1.1.6"  stroke-width="1405.29" stroke="#F7BD13"/>
            <path id="SMD_x0020_Pad_5" d="M142831 9362c0,-1358 -1101,-2459 -2459,-2459 -1358,0 -2459,1101 -2459,2459 0,1358 1101,2459 2459,2459 1359,0 2459,-1101 2459,-2459zm-2459 -2459l0 -1831m2459 -2317l0 2317 -4919 0 0 -2317 4919 0zm-4919 1542l4919 0m-4919 -765l4919 0" fill="none" gorn="0.1.1.7"  stroke-width="1405.29" stroke="#F7BD13"/>
            <path id="SMD_x0020_Pad_6" d="M133908 9362c0,-1358 -1101,-2459 -2459,-2459 -1358,0 -2459,1101 -2459,2459 0,1358 1101,2459 2459,2459 1359,0 2459,-1101 2459,-2459zm-2459 -2459l0 -1831m2459 -2317l0 2317 -4919 0 0 -2317 4919 0zm-4919 1542l4919 0m-4919 -765l4919 0" fill="none" gorn="0.1.1.8"  stroke-width="1405.29" stroke="#F7BD13"/>
            <path id="SMD_x0020_Pad_7" d="M124984 9362c0,-1358 -1101,-2459 -2459,-2459 -1358,0 -2459,1101 -2459,2459 0,1358 1101,2459 2459,2459 1359,0 2459,-1101 2459,-2459zm-2459 -2459l0 -1831m2459 -2317l0 2317 -4919 0 0 -2317 4919 0zm-4919 1542l4919 0m-4919 -765l4919 0" fill="none" gorn="0.1.1.9"  stroke-width="1405.29" stroke="#F7BD13"/>
            <path id="SMD_x0020_Pad_8" d="M116061 9362c0,-1358 -1101,-2459 -2459,-2459 -1358,0 -2459,1101 -2459,2459 0,1358 1101,2459 2459,2459 1359,0 2459,-1101 2459,-2459zm-2459 -2459l0 -1831m2459 -2317l0 2317 -4919 0 0 -2317 4919 0zm-4919 1542l4919 0m-4919 -765l4919 0" fill="none" gorn="0.1.1.10"  stroke-width="1405.29" stroke="#F7BD13"/>
            <path id="SMD_x0020_Pad_9" d="M107137 9362c0,-1358 -1101,-2459 -2459,-2459 -1358,0 -2459,1101 -2459,2459 0,1358 1101,2459 2459,2459 1359,0 2459,-1101 2459,-2459zm-2459 -2459l0 -1831m2459 -2317l0 2317 -4919 0 0 -2317 4919 0zm-4919 1542l4919 0m-4919 -765l4919 0" fill="none" gorn="0.1.1.11"  stroke-width="1405.29" stroke="#F7BD13"/>
            <path id="SMD_x0020_Pad_10" d="M98213 9362c0,-1358 -1101,-2459 -2459,-2459 -1358,0 -2459,1101 -2459,2459 0,1358 1101,2459 2459,2459 1359,0 2459,-1101 2459,-2459zm-2459 -2459l0 -1831m2459 -2317l0 2317 -4919 0 0 -2317 4919 0zm-4919 1542l4919 0m-4919 -765l4919 0" fill="none" gorn="0.1.1.12"  stroke-width="1405.29" stroke="#F7BD13"/>
            <path id="SMD_x0020_Pad_11" d="M89290 9362c0,-1358 -1101,-2459 -2459,-2459 -1358,0 -2459,1101 -2459,2459 0,1358 1101,2459 2459,2459 1359,0 2459,-1101 2459,-2459zm-2459 -2459l0 -1831m2459 -2317l0 2317 -4919 0 0 -2317 4919 0zm-4919 1542l4919 0m-4919 -765l4919 0" fill="none" gorn="0.1.1.13"  stroke-width="1405.29" stroke="#F7BD13"/>
            <path id="SMD_x0020_Pad_12" d="M80366 9362c0,-1358 -1101,-2459 -2459,-2459 -1358,0 -2459,1101 -2459,2459 0,1358 1101,2459 2459,2459 1359,0 2459,-1101 2459,-2459zm-2459 -2459l0 -1831m2459 -2317l0 2317 -4919 0 0 -2317 4919 0zm-4919 1542l4919 0m-4919 -765l4919 0" fill="none" gorn="0.1.1.14"  stroke-width="1405.29" stroke="#F7BD13"/>
            <path id="SMD_x0020_Pad_13" d="M80367 80751c0,1358 -1101,2459 -2459,2459 -1358,0 -2459,-1101 -2459,-2459 0,-1358 1101,-2459 2459,-2459 1359,0 2459,1101 2459,2459zm-2459 2459l0 1831m2459 2317l0 -2317 -4919 0 0 2317 4919 0zm-4919 -1542l4919 0m-4919 765l4919 0" fill="none" gorn="0.1.1.15"  stroke-width="1405.29" stroke="#F7BD13"/>
            <path id="SMD_x0020_Pad_14" d="M89291 80751c0,1358 -1101,2459 -2459,2459 -1358,0 -2459,-1101 -2459,-2459 0,-1358 1101,-2459 2459,-2459 1359,0 2459,1101 2459,2459zm-2459 2459l0 1831m2459 2317l0 -2317 -4919 0 0 2317 4919 0zm-4919 -1542l4919 0m-4919 765l4919 0" fill="none" gorn="0.1.1.16"  stroke-width="1405.29" stroke="#F7BD13"/>
            <path id="SMD_x0020_Pad_15" d="M98214 80751c0,1358 -1101,2459 -2459,2459 -1358,0 -2459,-1101 -2459,-2459 0,-1358 1101,-2459 2459,-2459 1359,0 2459,1101 2459,2459zm-2459 2459l0 1831m2459 2317l0 -2317 -4919 0 0 2317 4919 0zm-4919 -1542l4919 0m-4919 765l4919 0" fill="none" gorn="0.1.1.17"  stroke-width="1405.29" stroke="#F7BD13"/>
            <path id="SMD_x0020_Pad_16" d="M107138 80751c0,1358 -1101,2459 -2459,2459 -1358,0 -2459,-1101 -2459,-2459 0,-1358 1101,-2459 2459,-2459 1359,0 2459,1101 2459,2459zm-2459 2459l0 1831m2459 2317l0 -2317 -4919 0 0 2317 4919 0zm-4919 -1542l4919 0m-4919 765l4919 0" fill="none" gorn="0.1.1.18"  stroke-width="1405.29" stroke="#F7BD13"/>
            <path id="SMD_x0020_Pad_17" d="M116061 80751c0,1358 -1101,2459 -2459,2459 -1358,0 -2459,-1101 -2459,-2459 0,-1358 1101,-2459 2459,-2459 1359,0 2459,1101 2459,2459zm-2459 2459l0 1831m2459 2317l0 -2317 -4919 0 0 2317 4919 0zm-4919 -1542l4919 0m-4919 765l4919 0" fill="none" gorn="0.1.1.19"  stroke-width="1405.29" stroke="#F7BD13"/>
            <path id="SMD_x0020_Pad_18" d="M124985 80751c0,1358 -1101,2459 -2459,2459 -1358,0 -2459,-1101 -2459,-2459 0,-1358 1101,-2459 2459,-2459 1359,0 2459,1101 2459,2459zm-2459 2459l0 1831m2459 2317l0 -2317 -4919 0 0 2317 4919 0zm-4919 -1542l4919 0m-4919 765l4919 0" fill="none" gorn="0.1.1.20"  stroke-width="1405.29" stroke="#F7BD13"/>
            <path id="SMD_x0020_Pad_19" d="M133908 80751c0,1358 -1101,2459 -2459,2459 -1358,0 -2459,-1101 -2459,-2459 0,-1358 1101,-2459 2459,-2459 1359,0 2459,1101 2459,2459zm-2459 2459l0 1831m2459 2317l0 -2317 -4919 0 0 2317 4919 0zm-4919 -1542l4919 0m-4919 765l4919 0" fill="none" gorn="0.1.1.21"  stroke-width="1405.29" stroke="#F7BD13"/>
            <path id="SMD_x0020_Pad_20" d="M142832 80751c0,1358 -1101,2459 -2459,2459 -1358,0 -2459,-1101 -2459,-2459 0,-1358 1101,-2459 2459,-2459 1359,0 2459,1101 2459,2459zm-2459 2459l0 1831m2459 2317l0 -2317 -4919 0 0 2317 4919 0zm-4919 -1542l4919 0m-4919 765l4919 0" fill="none" gorn="0.1.1.22"  stroke-width="1405.29" stroke="#F7BD13"/>
            <path id="SMD_x0020_Pad_21" d="M151756 80751c0,1358 -1101,2459 -2459,2459 -1358,0 -2459,-1101 -2459,-2459 0,-1358 1101,-2459 2459,-2459 1359,0 2459,1101 2459,2459zm-2459 2459l0 1831m2459 2317l0 -2317 -4919 0 0 2317 4919 0zm-4919 -1542l4919 0m-4919 765l4919 0" fill="none" gorn="0.1.1.23"  stroke-width="1405.29" stroke="#F7BD13"/>
            <path id="SMD_x0020_Pad_22" d="M160679 80751c0,1358 -1101,2459 -2459,2459 -1358,0 -2459,-1101 -2459,-2459 0,-1358 1101,-2459 2459,-2459 1359,0 2459,1101 2459,2459zm-2459 2459l0 1831m2459 2317l0 -2317 -4919 0 0 2317 4919 0zm-4919 -1542l4919 0m-4919 765l4919 0" fill="none" gorn="0.1.1.24"  stroke-width="1405.29" stroke="#F7BD13"/>
            <path id="SMD_x0020_Pad_23" d="M169603 80751c0,1358 -1101,2459 -2459,2459 -1358,0 -2459,-1101 -2459,-2459 0,-1358 1101,-2459 2459,-2459 1359,0 2459,1101 2459,2459zm-2459 2459l0 1831m2459 2317l0 -2317 -4919 0 0 2317 4919 0zm-4919 -1542l4919 0m-4919 765l4919 0" fill="none" gorn="0.1.1.25"  stroke-width="1405.29" stroke="#F7BD13"/>
            <path id="SMD_x0020_Pad_24" d="M178526 80751c0,1358 -1101,2459 -2459,2459 -1358,0 -2459,-1101 -2459,-2459 0,-1358 1101,-2459 2459,-2459 1359,0 2459,1101 2459,2459zm-2459 2459l0 1831m2459 2317l0 -2317 -4919 0 0 2317 4919 0zm-4919 -1542l4919 0m-4919 765l4919 0" fill="none" gorn="0.1.1.26"  stroke-width="1405.29" stroke="#F7BD13"/>
            <path id="SMD_x0020_Pad_25" d="M187450 80751c0,1358 -1101,2459 -2459,2459 -1358,0 -2459,-1101 -2459,-2459 0,-1358 1101,-2459 2459,-2459 1359,0 2459,1101 2459,2459zm-2459 2459l0 1831m2459 2317l0 -2317 -4919 0 0 2317 4919 0zm-4919 -1542l4919 0m-4919 765l4919 0" fill="none" gorn="0.1.1.27"  stroke-width="1405.29" stroke="#F7BD13"/>
            <path id="SMD_x0020_Pad_26" d="M196373 80751c0,1358 -1101,2459 -2459,2459 -1358,0 -2459,-1101 -2459,-2459 0,-1358 1101,-2459 2459,-2459 1359,0 2459,1101 2459,2459zm-2459 2459l0 1831m2459 2317l0 -2317 -4919 0 0 2317 4919 0zm-4919 -1542l4919 0m-4919 765l4919 0" fill="none" gorn="0.1.1.28"  stroke-width="1405.29" stroke="#F7BD13"/>
        </g>
        <g id="silkscreen" gorn="0.1.2" >
            <path d="M351 31759l0 -31408 216024 88 0 17935 7284 0 0 53366 -7285 0 0 17935 -148159 -60m-29745 -12l-38120 -15 0 -31233" fill="none"  stroke-width="702.644" stroke="#373435"/>
            <text y="48666" x="84672" fill="#373435" font-family="OCRA" font-size="9915"  font-weight="500">MKR1000</text>
            <text y="96380" x="37715" fill="#373435" font-family="Droid Sans" font-size="6816.7"  font-weight="bold">3.7V Li-Po</text>
        </g>
    </g>
</svg>
